# xmcd
# 
# Track frame offsets:
#     150
#     13927
#     31407
#     74517
#     86487
#     110190
#     136322
#     150142
#     164360
#     177693
# 
# Disc length: 2623
# 
# Revision: 2
# Processed by: cddbd v1.5.2PL0 Copyright (c) Steve Scherf et al.
# Submitted via: BonkEnc v1.0.6
# 
DISCID=850a3d0a
DTITLE=Van Morrison - Van Morrison
DYEAR=0
DGENRE=Blues
TTITLE0=Brown Eyed Girl
TTITLE1=Spanish Rose
TTITLE2=T.B. Sheets
TTITLE3=Midnight Special
TTITLE4=Madam George
TTITLE5=He Ain't Give You None
TTITLE6=Ro Ro Rosey
TTITLE7=Chick-a-Boom
TTITLE8=Goodbye Baby
TTITLE9=Joe Harper Saturday Morning
EXTD=
EXTT0=
EXTT1=
EXTT2=
EXTT3=
EXTT4=
EXTT5=
EXTT6=
EXTT7=
EXTT8=
EXTT9=
PLAYORDER=
